<svg xmlns="http://www.w3.org/2000/svg" width="16" height="16" viewBox="0 0 16 16" fill="none">
<g clip-path="url(#clip0_178_643)">
<path d="M7.96875 0.5C3.57469 0.5 0 3.654 0 7.53125C0 9.16912 0.648188 10.7562 1.82784 12.0141C2.06131 12.9768 1.77794 13.9967 1.07481 14.6998C0.780813 14.9938 0.988719 15.5 1.40625 15.5C2.742 15.5 4.02969 14.9768 4.98641 14.0539C5.93306 14.3918 6.93466 14.5625 7.96875 14.5625C12.3628 14.5625 16 11.4085 16 7.53125C16 3.654 12.3628 0.5 7.96875 0.5ZM4.28125 8.9375C3.50581 8.9375 2.875 8.30669 2.875 7.53125C2.875 6.75581 3.50581 6.125 4.28125 6.125C5.05669 6.125 5.6875 6.75581 5.6875 7.53125C5.6875 8.30669 5.05669 8.9375 4.28125 8.9375ZM8.03125 8.9375C7.25581 8.9375 6.625 8.30669 6.625 7.53125C6.625 6.75581 7.25581 6.125 8.03125 6.125C8.80669 6.125 9.4375 6.75581 9.4375 7.53125C9.4375 8.30669 8.80669 8.9375 8.03125 8.9375ZM11.7812 8.9375C11.0058 8.9375 10.375 8.30669 10.375 7.53125C10.375 6.75581 11.0058 6.125 11.7812 6.125C12.5567 6.125 13.1875 6.75581 13.1875 7.53125C13.1875 8.30669 12.5567 8.9375 11.7812 8.9375Z" fill="#151515"/>
</g>
<defs>
<clipPath id="clip0_178_643">
<rect width="16" height="16" fill="white"/>
</clipPath>
</defs>
</svg>