<svg width="24" height="24" viewBox="0 0 24 24" fill="none" xmlns="http://www.w3.org/2000/svg">
<g id="Frame" clip-path="url(#clip0_666_139)">
<g id="Group">
<path id="Vector" d="M12 0C5.38294 0 0 5.38294 0 12C0 18.6171 5.38294 24 12 24C18.6171 24 24 18.6171 24 12C24 5.38294 18.6171 0 12 0ZM17.707 18.2069C17.6143 18.2999 17.5041 18.3737 17.3828 18.424C17.2615 18.4743 17.1314 18.5002 17.0001 18.5001C16.8687 18.5002 16.7387 18.4743 16.6173 18.424C16.496 18.3737 16.3858 18.2999 16.2931 18.2069L11.293 13.207C11.2 13.1143 11.1262 13.0042 11.0759 12.8828C11.0256 12.7615 10.9998 12.6314 11.0001 12.5001V6C11.0001 5.44702 11.448 5.00006 12 5.00006C12.552 5.00006 12.9999 5.44702 12.9999 6V12.0861L17.707 16.793C18.098 17.1841 18.098 17.816 17.707 18.2069Z" fill="white"/>
</g>
</g>
<defs>
<clipPath id="clip0_666_139">
<rect width="24" height="24" fill="white"/>
</clipPath>
</defs>
</svg>
