<svg width="16" height="16" viewBox="0 0 16 16" fill="none" xmlns="http://www.w3.org/2000/svg">
<g id="Frame">
<g id="Group">
<path id="Vector" d="M10.3671 8.66406L9.02712 10.0086C8.48371 10.5539 7.52759 10.5657 6.97243 10.0086L5.63234 8.66406L0.819336 13.4927C0.998492 13.5755 1.19602 13.625 1.40602 13.625H14.5935C14.8035 13.625 15.001 13.5756 15.1801 13.4927L10.3671 8.66406Z" fill="#252525"/>
<path id="Vector_2" d="M14.5938 2.375H1.40625C1.19625 2.375 0.998719 2.42444 0.819625 2.50728L5.96266 7.66738C5.963 7.66772 5.96341 7.66778 5.96375 7.66813C5.96396 7.66835 5.9641 7.66863 5.96416 7.66894L7.63644 9.34675C7.81406 9.52438 8.186 9.52438 8.36362 9.34675L10.0356 7.66922C10.0356 7.66922 10.036 7.66847 10.0363 7.66813C10.0363 7.66813 10.0371 7.66772 10.0374 7.66738L15.1803 2.50725C15.0012 2.42438 14.8038 2.375 14.5938 2.375ZM0.149562 3.16287C0.056875 3.35031 0 3.55838 0 3.78125V12.2188C0 12.4416 0.0568125 12.6497 0.149531 12.8371L4.97087 8.00016L0.149562 3.16287ZM15.8504 3.16281L11.0292 8.00016L15.8504 12.8372C15.9431 12.6498 16 12.4417 16 12.2188V3.78125C16 3.55831 15.9431 3.35025 15.8504 3.16281Z" fill="#252525"/>
</g>
</g>
</svg>
