<svg width="16" height="16" viewBox="0 0 16 16" fill="none" xmlns="http://www.w3.org/2000/svg">
<g id="Frame" clip-path="url(#clip0_247_1058)">
<g id="Group">
<path id="Vector" d="M15.0175 11.3C14.9765 11.2675 12 9.122 11.183 9.276C10.793 9.345 10.57 9.611 10.1225 10.1435C10.0505 10.2295 9.8775 10.4355 9.743 10.582C9.4602 10.4898 9.18433 10.3775 8.9175 10.246C7.54026 9.5755 6.4275 8.46274 5.757 7.0855C5.62543 6.81871 5.51315 6.54284 5.421 6.26C5.568 6.125 5.774 5.952 5.862 5.878C6.392 5.433 6.6585 5.21 6.7275 4.819C6.869 4.009 4.725 1.012 4.7025 0.985C4.60522 0.846035 4.47827 0.730431 4.33084 0.646552C4.1834 0.562672 4.01916 0.512614 3.85 0.5C2.981 0.5 0.5 3.7185 0.5 4.2605C0.5 4.292 0.5455 7.494 4.494 11.5105C8.5065 15.4545 11.708 15.5 11.7395 15.5C12.282 15.5 15.5 13.019 15.5 12.15C15.4875 11.9814 15.4378 11.8177 15.3543 11.6707C15.2709 11.5238 15.1558 11.3971 15.0175 11.3Z" fill="#252525"/>
</g>
</g>
<defs>
<clipPath id="clip0_247_1058">
<rect width="16" height="16" fill="white"/>
</clipPath>
</defs>
</svg>
