<svg width="24" height="24" viewBox="0 0 24 24" fill="none" xmlns="http://www.w3.org/2000/svg">
<g id="Frame" clip-path="url(#clip0_666_128)">
<g id="Group">
<path id="Vector" d="M22.5262 16.95C22.4648 16.9013 18 13.683 16.7745 13.914C16.1895 14.0175 15.855 14.4165 15.1838 15.2153C15.0758 15.3443 14.8162 15.6532 14.6145 15.873C14.1903 15.7346 13.7765 15.5662 13.3762 15.369C11.3104 14.3633 9.64124 12.6941 8.6355 10.6283C8.43815 10.2281 8.26972 9.81425 8.1315 9.39C8.352 9.1875 8.661 8.928 8.793 8.817C9.588 8.1495 9.98775 7.815 10.0912 7.2285C10.3035 6.0135 7.0875 1.518 7.05375 1.4775C6.90784 1.26905 6.71741 1.09565 6.49625 0.969827C6.2751 0.844008 6.02874 0.768921 5.775 0.75C4.4715 0.75 0.75 5.57775 0.75 6.39075C0.75 6.438 0.81825 11.241 6.741 17.2658C12.7597 23.1817 17.562 23.25 17.6092 23.25C18.423 23.25 23.25 19.5285 23.25 18.225C23.2313 17.9722 23.1567 17.7266 23.0315 17.5061C22.9063 17.2856 22.7338 17.0957 22.5262 16.95Z" fill="white"/>
</g>
</g>
<defs>
<clipPath id="clip0_666_128">
<rect width="24" height="24" fill="white"/>
</clipPath>
</defs>
</svg>
