<svg width="16" height="17" viewBox="0 0 16 17" fill="none" xmlns="http://www.w3.org/2000/svg">
<g id="Frame" clip-path="url(#clip0_247_1053)">
<g id="Group">
<path id="Vector" d="M8.00016 0.5C4.805 0.5 2.20557 3.09944 2.20557 6.29456C2.20557 10.2598 7.39116 16.081 7.61194 16.3269C7.81932 16.5579 8.18138 16.5575 8.38838 16.3269C8.60916 16.081 13.7948 10.2598 13.7948 6.29456C13.7947 3.09944 11.1953 0.5 8.00016 0.5ZM8.00016 9.20997C6.3926 9.20997 5.08478 7.90212 5.08478 6.29456C5.08478 4.687 6.39263 3.37919 8.00016 3.37919C9.60769 3.37919 10.9155 4.68703 10.9155 6.29459C10.9155 7.90216 9.60769 9.20997 8.00016 9.20997Z" fill="#252525"/>
</g>
</g>
<defs>
<clipPath id="clip0_247_1053">
<rect width="16" height="16" fill="white" transform="translate(0 0.5)"/>
</clipPath>
</defs>
</svg>
