<svg width="16" height="16" viewBox="0 0 16 16" fill="none" xmlns="http://www.w3.org/2000/svg">
<g id="Frame" clip-path="url(#clip0_247_1075)">
<g id="Group">
<path id="Vector" d="M7.10761 2.67939L6.98011 3.45939C6.97454 3.50497 6.98163 3.5512 7.0006 3.59301C7.01957 3.63482 7.04969 3.6706 7.08765 3.69643C7.12561 3.72225 7.16995 3.73712 7.21581 3.73941C7.26166 3.7417 7.30727 3.73131 7.34761 3.70939L8.00011 3.35689L8.65261 3.71939C8.68947 3.73929 8.73073 3.7496 8.77261 3.74939C8.82444 3.74979 8.87511 3.73406 8.91761 3.70439C8.95685 3.67692 8.98737 3.63876 9.00554 3.59443C9.02371 3.55011 9.02877 3.50151 9.02011 3.45439L8.89261 2.67439L9.43011 2.12439C9.46138 2.09181 9.48325 2.05135 9.49337 2.00733C9.50349 1.96331 9.5015 1.91737 9.48761 1.87439C9.47293 1.83077 9.44648 1.79204 9.41119 1.76249C9.3759 1.73293 9.33314 1.7137 9.28761 1.70689L8.55511 1.59439L8.22761 0.894395C8.20772 0.850748 8.1757 0.813743 8.13536 0.787793C8.09503 0.761844 8.04807 0.748047 8.00011 0.748047C7.95215 0.748047 7.90519 0.761844 7.86486 0.787793C7.82452 0.813743 7.7925 0.850748 7.77261 0.894395L7.44511 1.59439L6.71261 1.70689C6.66708 1.7137 6.62432 1.73293 6.58903 1.76249C6.55374 1.79204 6.52729 1.83077 6.51261 1.87439C6.49872 1.91737 6.49673 1.96331 6.50685 2.00733C6.51697 2.05135 6.53884 2.09181 6.57011 2.12439L7.10761 2.67939ZM9.28761 13.2069L8.55511 13.0944L8.22761 12.3944C8.20772 12.3507 8.1757 12.3137 8.13536 12.2878C8.09503 12.2618 8.04807 12.248 8.00011 12.248C7.95215 12.248 7.90519 12.2618 7.86486 12.2878C7.82452 12.3137 7.7925 12.3507 7.77261 12.3944L7.44511 13.0944L6.71261 13.2069C6.66708 13.2137 6.62432 13.2329 6.58903 13.2625C6.55374 13.292 6.52729 13.3308 6.51261 13.3744C6.49872 13.4174 6.49673 13.4633 6.50685 13.5073C6.51697 13.5514 6.53884 13.5918 6.57011 13.6244L7.10761 14.1744L6.98011 14.9544C6.97454 15 6.98163 15.0462 7.0006 15.088C7.01957 15.1298 7.04969 15.1656 7.08765 15.1914C7.12561 15.2173 7.16995 15.2321 7.21581 15.2344C7.26166 15.2367 7.30727 15.2263 7.34761 15.2044L8.00011 14.8569L8.65261 15.2194C8.68947 15.2393 8.73073 15.2496 8.77261 15.2494C8.82444 15.2498 8.87511 15.2341 8.91761 15.2044C8.95685 15.1769 8.98737 15.1388 9.00554 15.0944C9.02371 15.0501 9.02877 15.0015 9.02011 14.9544L8.89261 14.1744L9.43011 13.6244C9.46138 13.5918 9.48325 13.5514 9.49337 13.5073C9.50349 13.4633 9.5015 13.4174 9.48761 13.3744C9.47293 13.3308 9.44648 13.292 9.41119 13.2625C9.3759 13.2329 9.33314 13.2137 9.28761 13.2069ZM3.02261 9.49939C3.07444 9.49979 3.12511 9.48406 3.16761 9.45439C3.20685 9.42692 3.23737 9.38875 3.25554 9.34443C3.27371 9.30011 3.27877 9.25151 3.27011 9.20439L3.14261 8.4244L3.68011 7.87439C3.71138 7.8418 3.73324 7.80135 3.74337 7.75733C3.75349 7.71331 3.7515 7.66737 3.73761 7.62439C3.72292 7.58077 3.69648 7.54204 3.66119 7.51249C3.6259 7.48293 3.58314 7.4637 3.53761 7.45689L2.80511 7.34439L2.47761 6.64439C2.45772 6.60075 2.4257 6.56374 2.38536 6.53779C2.34502 6.51184 2.29807 6.49805 2.25011 6.49805C2.20215 6.49805 2.15519 6.51184 2.11486 6.53779C2.07452 6.56374 2.0425 6.60075 2.02261 6.64439L1.69511 7.34439L0.962609 7.45689C0.917083 7.4637 0.874319 7.48293 0.839029 7.51249C0.803739 7.54204 0.777295 7.58077 0.762609 7.62439C0.748716 7.66737 0.746725 7.71331 0.75685 7.75733C0.766974 7.80135 0.788835 7.8418 0.820109 7.87439L1.35761 8.4244L1.23011 9.20439C1.22454 9.24997 1.23163 9.2962 1.2506 9.33801C1.26957 9.37982 1.29968 9.4156 1.33765 9.44143C1.37561 9.46725 1.41995 9.48212 1.46581 9.48441C1.51166 9.4867 1.55727 9.47631 1.59761 9.45439L2.25011 9.10689L2.90261 9.46939C2.93947 9.48929 2.98073 9.4996 3.02261 9.49939ZM15.2501 7.62439C15.2354 7.58077 15.209 7.54204 15.1737 7.51249C15.1384 7.48293 15.0956 7.4637 15.0501 7.45689L14.3176 7.34439L13.9901 6.64439C13.9702 6.60075 13.9382 6.56374 13.8979 6.53779C13.8575 6.51184 13.8106 6.49805 13.7626 6.49805C13.7146 6.49805 13.6677 6.51184 13.6274 6.53779C13.587 6.56374 13.555 6.60075 13.5351 6.64439L13.2076 7.34439L12.4751 7.45689C12.4296 7.4637 12.3868 7.48293 12.3515 7.51249C12.3162 7.54204 12.2898 7.58077 12.2751 7.62439C12.2612 7.66737 12.2592 7.71331 12.2694 7.75733C12.2795 7.80135 12.3013 7.8418 12.3326 7.87439L12.8701 8.4244L12.7426 9.20439C12.737 9.24997 12.7441 9.2962 12.7631 9.33801C12.7821 9.37982 12.8122 9.4156 12.8501 9.44143C12.8881 9.46725 12.9325 9.48212 12.9783 9.48441C13.0242 9.4867 13.0698 9.47631 13.1101 9.45439L13.7501 9.10689L14.4026 9.46939C14.4395 9.48929 14.4807 9.4996 14.5226 9.49939C14.5744 9.49979 14.6251 9.48406 14.6676 9.45439C14.7068 9.42692 14.7374 9.38875 14.7555 9.34443C14.7737 9.30011 14.7788 9.25151 14.7701 9.20439L14.6426 8.4244L15.1801 7.87439C15.2135 7.84313 15.2378 7.80328 15.2501 7.75919C15.2624 7.71511 15.2625 7.66848 15.2501 7.62439ZM11.1076 4.42939L10.9801 5.20939C10.9745 5.25497 10.9816 5.3012 11.0006 5.34301C11.0196 5.38482 11.0497 5.4206 11.0876 5.44643C11.1256 5.47225 11.17 5.48712 11.2158 5.48941C11.2617 5.4917 11.3073 5.48131 11.3476 5.45939L12.0001 5.10689L12.6526 5.46939C12.6895 5.48929 12.7307 5.4996 12.7726 5.49939C12.8244 5.49979 12.8751 5.48406 12.9176 5.45439C12.9568 5.42692 12.9874 5.38876 13.0055 5.34444C13.0237 5.30011 13.0288 5.25151 13.0201 5.20439L12.8926 4.4244L13.4301 3.87439C13.4614 3.84181 13.4832 3.80135 13.4934 3.75733C13.5035 3.71331 13.5015 3.66737 13.4876 3.62439C13.4729 3.58077 13.4465 3.54204 13.4112 3.51249C13.3759 3.48293 13.3331 3.4637 13.2876 3.45689L12.5551 3.34439L12.2276 2.64439C12.2077 2.60075 12.1757 2.56374 12.1354 2.53779C12.095 2.51184 12.0481 2.49805 12.0001 2.49805C11.9521 2.49805 11.9052 2.51184 11.8649 2.53779C11.8245 2.56374 11.7925 2.60075 11.7726 2.64439L11.4451 3.34439L10.7126 3.45689C10.6671 3.4637 10.6243 3.48293 10.589 3.51249C10.5537 3.54204 10.5273 3.58077 10.5126 3.62439C10.4987 3.66737 10.4967 3.71331 10.5068 3.75733C10.517 3.80135 10.5388 3.84181 10.5701 3.87439L11.1076 4.42939ZM3.10761 4.42939L2.98011 5.20939C2.97454 5.25497 2.98163 5.3012 3.0006 5.34301C3.01957 5.38482 3.04968 5.4206 3.08765 5.44643C3.12561 5.47225 3.16995 5.48712 3.21581 5.48941C3.26166 5.4917 3.30727 5.48131 3.34761 5.45939L4.00011 5.10689L4.65261 5.46939C4.68947 5.48929 4.73073 5.4996 4.77261 5.49939C4.82444 5.49979 4.87511 5.48406 4.91761 5.45439C4.95685 5.42692 4.98737 5.38876 5.00554 5.34444C5.02371 5.30011 5.02877 5.25151 5.02011 5.20439L4.89261 4.4244L5.43011 3.87439C5.46138 3.84181 5.48325 3.80135 5.49337 3.75733C5.50349 3.71331 5.5015 3.66737 5.48761 3.62439C5.47292 3.58077 5.44648 3.54204 5.41119 3.51249C5.3759 3.48293 5.33314 3.4637 5.28761 3.45689L4.55511 3.34439L4.22761 2.64439C4.20772 2.60075 4.1757 2.56374 4.13536 2.53779C4.09502 2.51184 4.04807 2.49805 4.00011 2.49805C3.95215 2.49805 3.90519 2.51184 3.86486 2.53779C3.82452 2.56374 3.7925 2.60075 3.77261 2.64439L3.44511 3.34439L2.71261 3.45689C2.66708 3.4637 2.62432 3.48293 2.58903 3.51249C2.55374 3.54204 2.52729 3.58077 2.51261 3.62439C2.49872 3.66737 2.49673 3.71331 2.50685 3.75733C2.51697 3.80135 2.53883 3.84181 2.57011 3.87439L3.10761 4.42939ZM5.53761 11.2069L4.80511 11.0944L4.47761 10.3944C4.45772 10.3507 4.4257 10.3137 4.38536 10.2878C4.34502 10.2618 4.29807 10.248 4.25011 10.248C4.20215 10.248 4.15519 10.2618 4.11486 10.2878C4.07452 10.3137 4.0425 10.3507 4.02261 10.3944L3.69511 11.0944L2.96261 11.2069C2.91708 11.2137 2.87432 11.2329 2.83903 11.2625C2.80374 11.292 2.77729 11.3308 2.76261 11.3744C2.74872 11.4174 2.74673 11.4633 2.75685 11.5073C2.76697 11.5514 2.78883 11.5918 2.82011 11.6244L3.35761 12.1744L3.23011 12.9544C3.22454 13 3.23163 13.0462 3.2506 13.088C3.26957 13.1298 3.29968 13.1656 3.33765 13.1914C3.37561 13.2173 3.41995 13.2321 3.46581 13.2344C3.51166 13.2367 3.55727 13.2263 3.59761 13.2044L4.25011 12.8569L4.90261 13.2194C4.93947 13.2393 4.98073 13.2496 5.02261 13.2494C5.07444 13.2498 5.12511 13.2341 5.16761 13.2044C5.20685 13.1769 5.23737 13.1388 5.25554 13.0944C5.27371 13.0501 5.27877 13.0015 5.27011 12.9544L5.14261 12.1744L5.68011 11.6244C5.71138 11.5918 5.73325 11.5514 5.74337 11.5073C5.75349 11.4633 5.7515 11.4174 5.73761 11.3744C5.72292 11.3308 5.69648 11.292 5.66119 11.2625C5.6259 11.2329 5.58314 11.2137 5.53761 11.2069ZM13.2876 11.4569L12.5551 11.3444L12.2276 10.6444C12.2077 10.6007 12.1757 10.5637 12.1354 10.5378C12.095 10.5118 12.0481 10.498 12.0001 10.498C11.9521 10.498 11.9052 10.5118 11.8649 10.5378C11.8245 10.5637 11.7925 10.6007 11.7726 10.6444L11.4451 11.3444L10.7126 11.4569C10.6671 11.4637 10.6243 11.4829 10.589 11.5125C10.5537 11.542 10.5273 11.5808 10.5126 11.6244C10.4987 11.6674 10.4967 11.7133 10.5068 11.7573C10.517 11.8014 10.5388 11.8418 10.5701 11.8744L11.1076 12.4244L10.9801 13.2044C10.9745 13.25 10.9816 13.2962 11.0006 13.338C11.0196 13.3798 11.0497 13.4156 11.0876 13.4414C11.1256 13.4673 11.17 13.4821 11.2158 13.4844C11.2617 13.4867 11.3073 13.4763 11.3476 13.4544L12.0001 13.1069L12.6526 13.4694C12.6895 13.4893 12.7307 13.4996 12.7726 13.4994C12.8244 13.4998 12.8751 13.4841 12.9176 13.4544C12.9568 13.4269 12.9874 13.3888 13.0055 13.3444C13.0237 13.3001 13.0288 13.2515 13.0201 13.2044L12.8926 12.4244L13.4301 11.8744C13.4614 11.8418 13.4832 11.8014 13.4934 11.7573C13.5035 11.7133 13.5015 11.6674 13.4876 11.6244C13.4729 11.5808 13.4465 11.542 13.4112 11.5125C13.3759 11.4829 13.3331 11.4637 13.2876 11.4569ZM9.50011 6.99939V6.49939C9.50011 6.10157 9.34207 5.72004 9.06077 5.43873C8.77947 5.15743 8.39793 4.99939 8.00011 4.99939C7.60228 4.99939 7.22075 5.15743 6.93945 5.43873C6.65814 5.72004 6.50011 6.10157 6.50011 6.49939V6.99939C6.3012 6.99939 6.11043 7.07841 5.96978 7.21906C5.82913 7.35972 5.75011 7.55048 5.75011 7.74939V9.74939C5.75011 9.94831 5.82913 10.1391 5.96978 10.2797C6.11043 10.4204 6.3012 10.4994 6.50011 10.4994H9.50011C9.69902 10.4994 9.88979 10.4204 10.0304 10.2797C10.1711 10.1391 10.2501 9.94831 10.2501 9.74939V7.74939C10.2501 7.55048 10.1711 7.35972 10.0304 7.21906C9.88979 7.07841 9.69902 6.99939 9.50011 6.99939ZM8.92761 8.42689L7.92761 9.42689C7.90437 9.45033 7.87672 9.46892 7.84625 9.48162C7.81579 9.49431 7.78311 9.50084 7.75011 9.50084C7.71711 9.50084 7.68443 9.49431 7.65397 9.48162C7.6235 9.46892 7.59585 9.45033 7.57261 9.42689L7.07261 8.92689C7.02553 8.87982 6.99909 8.81597 6.99909 8.74939C6.99909 8.68282 7.02553 8.61897 7.07261 8.5719C7.11969 8.52482 7.18353 8.49837 7.25011 8.49837C7.31669 8.49837 7.38053 8.52482 7.42761 8.5719L7.75011 8.89689L8.57261 8.0719C8.61969 8.02482 8.68353 7.99837 8.75011 7.99837C8.81668 7.99837 8.88053 8.02482 8.92761 8.0719C8.97469 8.11897 9.00113 8.18282 9.00113 8.24939C9.00113 8.31597 8.97469 8.37982 8.92761 8.42689ZM7.00011 6.49939C7.00011 6.23418 7.10547 5.97982 7.293 5.79229C7.48054 5.60475 7.73489 5.49939 8.00011 5.49939C8.26533 5.49939 8.51968 5.60475 8.70722 5.79229C8.89475 5.97982 9.00011 6.23418 9.00011 6.49939V6.99939H7.00011V6.49939Z" fill="#252525"/>
</g>
</g>
<defs>
<clipPath id="clip0_247_1075">
<rect width="16" height="16" fill="white"/>
</clipPath>
</defs>
</svg>
