<svg width="24" height="24" viewBox="0 0 24 24" fill="none" xmlns="http://www.w3.org/2000/svg">
<g id="Frame">
<g id="Group">
<path id="Vector" d="M10.6612 4.02007L10.4699 5.19007C10.4616 5.25843 10.4722 5.32777 10.5007 5.39049C10.5291 5.45321 10.5743 5.50688 10.6312 5.54562C10.6882 5.58435 10.7547 5.60666 10.8235 5.61009C10.8923 5.61352 10.9607 5.59795 11.0212 5.56507L11.9999 5.03632L12.9787 5.58007C13.034 5.60991 13.0958 5.62538 13.1587 5.62507C13.2364 5.62566 13.3124 5.60207 13.3762 5.55757C13.435 5.51636 13.4808 5.45911 13.5081 5.39263C13.5353 5.32615 13.5429 5.25324 13.5299 5.18257L13.3387 4.01257L14.1449 3.18757C14.1918 3.13868 14.2246 3.078 14.2398 3.01197C14.255 2.94595 14.252 2.87704 14.2312 2.81257C14.2091 2.74713 14.1695 2.68904 14.1165 2.64471C14.0636 2.60038 13.9995 2.57152 13.9312 2.56132L12.8324 2.39257L12.3412 1.34257C12.3113 1.2771 12.2633 1.22159 12.2028 1.18267C12.1423 1.14374 12.0719 1.12305 11.9999 1.12305C11.928 1.12305 11.8575 1.14374 11.797 1.18267C11.7365 1.22159 11.6885 1.2771 11.6587 1.34257L11.1674 2.39257L10.0687 2.56132C10.0004 2.57152 9.93623 2.60038 9.8833 2.64471C9.83037 2.68904 9.7907 2.74713 9.76867 2.81257C9.74783 2.87704 9.74484 2.94595 9.76003 3.01197C9.77522 3.078 9.80801 3.13868 9.85492 3.18757L10.6612 4.02007ZM13.9312 19.8113L12.8324 19.6426L12.3412 18.5926C12.3113 18.5271 12.2633 18.4716 12.2028 18.4327C12.1423 18.3937 12.0719 18.373 11.9999 18.373C11.928 18.373 11.8575 18.3937 11.797 18.4327C11.7365 18.4716 11.6885 18.5271 11.6587 18.5926L11.1674 19.6426L10.0687 19.8113C10.0004 19.8215 9.93623 19.8504 9.8833 19.8947C9.83037 19.939 9.7907 19.9971 9.76867 20.0626C9.74783 20.127 9.74484 20.1959 9.76003 20.262C9.77522 20.328 9.80801 20.3887 9.85492 20.4376L10.6612 21.2626L10.4699 22.4326C10.4616 22.5009 10.4722 22.5703 10.5007 22.633C10.5291 22.6957 10.5743 22.7494 10.6312 22.7881C10.6882 22.8269 10.7547 22.8492 10.8235 22.8526C10.8923 22.856 10.9607 22.8404 11.0212 22.8076L11.9999 22.2863L12.9787 22.8301C13.034 22.8599 13.0958 22.8754 13.1587 22.8751C13.2364 22.8757 13.3124 22.8521 13.3762 22.8076C13.435 22.7664 13.4808 22.7091 13.5081 22.6426C13.5353 22.5761 13.5429 22.5032 13.5299 22.4326L13.3387 21.2626L14.1449 20.4376C14.1918 20.3887 14.2246 20.328 14.2398 20.262C14.255 20.1959 14.252 20.127 14.2312 20.0626C14.2091 19.9971 14.1695 19.939 14.1165 19.8947C14.0636 19.8504 13.9995 19.8215 13.9312 19.8113ZM4.53367 14.2501C4.61141 14.2507 4.68742 14.2271 4.75117 14.1826C4.81003 14.1414 4.85581 14.0841 4.88307 14.0176C4.91033 13.9511 4.91791 13.8782 4.90492 13.8076L4.71367 12.6376L5.51992 11.8126C5.56683 11.7637 5.59962 11.703 5.61481 11.637C5.63 11.5709 5.62701 11.502 5.60617 11.4376C5.58414 11.3721 5.54448 11.314 5.49154 11.2697C5.43861 11.2254 5.37446 11.1965 5.30617 11.1863L4.20742 11.0176L3.71617 9.96757C3.68634 9.9021 3.63831 9.84659 3.5778 9.80767C3.51729 9.76874 3.44687 9.74805 3.37492 9.74805C3.30297 9.74805 3.23255 9.76874 3.17204 9.80767C3.11153 9.84659 3.0635 9.9021 3.03367 9.96757L2.54242 11.0176L1.44367 11.1863C1.37538 11.1965 1.31123 11.2254 1.2583 11.2697C1.20536 11.314 1.1657 11.3721 1.14367 11.4376C1.12283 11.502 1.11984 11.5709 1.13503 11.637C1.15022 11.703 1.18301 11.7637 1.22992 11.8126L2.03617 12.6376L1.84492 13.8076C1.83657 13.8759 1.8472 13.9453 1.87565 14.008C1.90411 14.0707 1.94928 14.1244 2.00623 14.1631C2.06317 14.2019 2.12968 14.2242 2.19847 14.2276C2.26725 14.231 2.33565 14.2154 2.39617 14.1826L3.37492 13.6613L4.35367 14.2051C4.40895 14.2349 4.47085 14.2504 4.53367 14.2501ZM22.8749 11.4376C22.8529 11.3721 22.8132 11.314 22.7603 11.2697C22.7074 11.2254 22.6432 11.1965 22.5749 11.1863L21.4762 11.0176L20.9849 9.96757C20.9551 9.9021 20.9071 9.84659 20.8465 9.80767C20.786 9.76874 20.7156 9.74805 20.6437 9.74805C20.5717 9.74805 20.5013 9.76874 20.4408 9.80767C20.3803 9.84659 20.3322 9.9021 20.3024 9.96757L19.8112 11.0176L18.7124 11.1863C18.6441 11.1965 18.58 11.2254 18.5271 11.2697C18.4741 11.314 18.4344 11.3721 18.4124 11.4376C18.3916 11.502 18.3886 11.5709 18.4038 11.637C18.419 11.703 18.4518 11.7637 18.4987 11.8126L19.3049 12.6376L19.1137 13.8076C19.1053 13.8759 19.1159 13.9453 19.1444 14.008C19.1729 14.0707 19.218 14.1244 19.275 14.1631C19.3319 14.2019 19.3984 14.2242 19.4672 14.2276C19.536 14.231 19.6044 14.2154 19.6649 14.1826L20.6249 13.6613L21.6037 14.2051C21.659 14.2349 21.7208 14.2504 21.7837 14.2501C21.8614 14.2507 21.9374 14.2271 22.0012 14.1826C22.06 14.1414 22.1058 14.0841 22.1331 14.0176C22.1603 13.9511 22.1679 13.8782 22.1549 13.8076L21.9637 12.6376L22.7699 11.8126C22.8201 11.7657 22.8564 11.7059 22.8749 11.6398C22.8934 11.5736 22.8934 11.5037 22.8749 11.4376ZM16.6612 6.64507L16.4699 7.81507C16.4616 7.88343 16.4722 7.95277 16.5007 8.01549C16.5291 8.07821 16.5743 8.13188 16.6312 8.17062C16.6882 8.20935 16.7547 8.23166 16.8235 8.23509C16.8923 8.23852 16.9607 8.22295 17.0212 8.19007L17.9999 7.66132L18.9787 8.20507C19.034 8.23491 19.0958 8.25038 19.1587 8.25007C19.2364 8.25066 19.3124 8.22707 19.3762 8.18257C19.435 8.14136 19.4808 8.08411 19.5081 8.01763C19.5353 7.95115 19.5429 7.87824 19.5299 7.80757L19.3387 6.63757L20.1449 5.81257C20.1918 5.76368 20.2246 5.703 20.2398 5.63697C20.255 5.57095 20.252 5.50204 20.2312 5.43757C20.2091 5.37213 20.1695 5.31404 20.1165 5.26971C20.0636 5.22538 19.9995 5.19652 19.9312 5.18632L18.8324 5.01757L18.3412 3.96757C18.3113 3.9021 18.2633 3.84659 18.2028 3.80767C18.1423 3.76874 18.0719 3.74805 17.9999 3.74805C17.928 3.74805 17.8575 3.76874 17.797 3.80767C17.7365 3.84659 17.6885 3.9021 17.6587 3.96757L17.1674 5.01757L16.0687 5.18632C16.0004 5.19652 15.9362 5.22538 15.8833 5.26971C15.8304 5.31404 15.7907 5.37213 15.7687 5.43757C15.7478 5.50204 15.7448 5.57095 15.76 5.63697C15.7752 5.703 15.808 5.76368 15.8549 5.81257L16.6612 6.64507ZM4.66117 6.64507L4.46992 7.81507C4.46157 7.88343 4.4722 7.95277 4.50065 8.01549C4.52911 8.07821 4.57428 8.13188 4.63123 8.17062C4.68817 8.20935 4.75468 8.23166 4.82347 8.23509C4.89225 8.23852 4.96065 8.22295 5.02117 8.19007L5.99992 7.66132L6.97867 8.20507C7.03395 8.23491 7.09585 8.25038 7.15867 8.25007C7.23641 8.25066 7.31242 8.22707 7.37617 8.18257C7.43503 8.14136 7.48081 8.08411 7.50807 8.01763C7.53533 7.95115 7.54291 7.87824 7.52992 7.80757L7.33867 6.63757L8.14492 5.81257C8.19183 5.76368 8.22462 5.703 8.23981 5.63697C8.255 5.57095 8.25201 5.50204 8.23117 5.43757C8.20914 5.37213 8.16948 5.31404 8.11654 5.26971C8.06361 5.22538 7.99946 5.19652 7.93117 5.18632L6.83242 5.01757L6.34117 3.96757C6.31134 3.9021 6.26331 3.84659 6.2028 3.80767C6.14229 3.76874 6.07187 3.74805 5.99992 3.74805C5.92797 3.74805 5.85755 3.76874 5.79704 3.80767C5.73653 3.84659 5.6885 3.9021 5.65867 3.96757L5.16742 5.01757L4.06867 5.18632C4.00038 5.19652 3.93623 5.22538 3.8833 5.26971C3.83036 5.31404 3.7907 5.37213 3.76867 5.43757C3.74783 5.50204 3.74484 5.57095 3.76003 5.63697C3.77522 5.703 3.80801 5.76368 3.85492 5.81257L4.66117 6.64507ZM8.30617 16.8113L7.20742 16.6426L6.71617 15.5926C6.68634 15.5271 6.63831 15.4716 6.5778 15.4327C6.51729 15.3937 6.44687 15.373 6.37492 15.373C6.30297 15.373 6.23255 15.3937 6.17204 15.4327C6.11153 15.4716 6.0635 15.5271 6.03367 15.5926L5.54242 16.6426L4.44367 16.8113C4.37538 16.8215 4.31123 16.8504 4.2583 16.8947C4.20536 16.939 4.1657 16.9971 4.14367 17.0626C4.12283 17.127 4.11984 17.1959 4.13503 17.262C4.15022 17.328 4.18301 17.3887 4.22992 17.4376L5.03617 18.2626L4.84492 19.4326C4.83657 19.5009 4.8472 19.5703 4.87565 19.633C4.90411 19.6957 4.94928 19.7494 5.00623 19.7881C5.06317 19.8269 5.12968 19.8492 5.19847 19.8526C5.26725 19.856 5.33565 19.8404 5.39617 19.8076L6.37492 19.2863L7.35367 19.8301C7.40895 19.8599 7.47085 19.8754 7.53367 19.8751C7.61141 19.8757 7.68742 19.8521 7.75117 19.8076C7.81003 19.7664 7.85581 19.7091 7.88307 19.6426C7.91033 19.5761 7.91791 19.5032 7.90492 19.4326L7.71367 18.2626L8.51992 17.4376C8.56683 17.3887 8.59962 17.328 8.61481 17.262C8.63 17.1959 8.62701 17.127 8.60617 17.0626C8.58414 16.9971 8.54448 16.939 8.49154 16.8947C8.43861 16.8504 8.37446 16.8215 8.30617 16.8113ZM19.9312 17.1863L18.8324 17.0176L18.3412 15.9676C18.3113 15.9021 18.2633 15.8466 18.2028 15.8077C18.1423 15.7687 18.0719 15.748 17.9999 15.748C17.928 15.748 17.8575 15.7687 17.797 15.8077C17.7365 15.8466 17.6885 15.9021 17.6587 15.9676L17.1674 17.0176L16.0687 17.1863C16.0004 17.1965 15.9362 17.2254 15.8833 17.2697C15.8304 17.314 15.7907 17.3721 15.7687 17.4376C15.7478 17.502 15.7448 17.5709 15.76 17.637C15.7752 17.703 15.808 17.7637 15.8549 17.8126L16.6612 18.6376L16.4699 19.8076C16.4616 19.8759 16.4722 19.9453 16.5007 20.008C16.5291 20.0707 16.5743 20.1244 16.6312 20.1631C16.6882 20.2019 16.7547 20.2242 16.8235 20.2276C16.8923 20.231 16.9607 20.2154 17.0212 20.1826L17.9999 19.6613L18.9787 20.2051C19.034 20.2349 19.0958 20.2504 19.1587 20.2501C19.2364 20.2507 19.3124 20.2271 19.3762 20.1826C19.435 20.1414 19.4808 20.0841 19.5081 20.0176C19.5353 19.9511 19.5429 19.8782 19.5299 19.8076L19.3387 18.6376L20.1449 17.8126C20.1918 17.7637 20.2246 17.703 20.2398 17.637C20.255 17.5709 20.252 17.502 20.2312 17.4376C20.2091 17.3721 20.1695 17.314 20.1165 17.2697C20.0636 17.2254 19.9995 17.1965 19.9312 17.1863ZM14.2499 10.5001V9.75007C14.2499 9.15333 14.0129 8.58104 13.5909 8.15908C13.169 7.73712 12.5967 7.50007 11.9999 7.50007C11.4032 7.50007 10.8309 7.73712 10.4089 8.15908C9.98697 8.58104 9.74992 9.15333 9.74992 9.75007V10.5001C9.45155 10.5001 9.1654 10.6186 8.95442 10.8296C8.74345 11.0406 8.62492 11.3267 8.62492 11.6251V14.6251C8.62492 14.9234 8.74345 15.2096 8.95442 15.4206C9.1654 15.6315 9.45155 15.7501 9.74992 15.7501H14.2499C14.5483 15.7501 14.8344 15.6315 15.0454 15.4206C15.2564 15.2096 15.3749 14.9234 15.3749 14.6251V11.6251C15.3749 11.3267 15.2564 11.0406 15.0454 10.8296C14.8344 10.6186 14.5483 10.5001 14.2499 10.5001ZM13.3912 12.6413L11.8912 14.1413C11.8563 14.1765 11.8148 14.2044 11.7691 14.2234C11.7234 14.2424 11.6744 14.2522 11.6249 14.2522C11.5754 14.2522 11.5264 14.2424 11.4807 14.2234C11.435 14.2044 11.3935 14.1765 11.3587 14.1413L10.6087 13.3913C10.5381 13.3207 10.4984 13.2249 10.4984 13.1251C10.4984 13.0252 10.5381 12.9294 10.6087 12.8588C10.6793 12.7882 10.7751 12.7485 10.8749 12.7485C10.9748 12.7485 11.0706 12.7882 11.1412 12.8588L11.6249 13.3463L12.8587 12.1088C12.9293 12.0382 13.0251 11.9985 13.1249 11.9985C13.2248 11.9985 13.3206 12.0382 13.3912 12.1088C13.4618 12.1794 13.5015 12.2752 13.5015 12.3751C13.5015 12.4749 13.4618 12.5707 13.3912 12.6413ZM10.4999 9.75007C10.4999 9.35224 10.658 8.97071 10.9393 8.68941C11.2206 8.4081 11.6021 8.25007 11.9999 8.25007C12.3977 8.25007 12.7793 8.4081 13.0606 8.68941C13.3419 8.97071 13.4999 9.35224 13.4999 9.75007V10.5001H10.4999V9.75007Z" fill="white"/>
</g>
</g>
</svg>
